# xmcd
#
# Track frame offsets: 
#        150
#        22599
#        40951
#        60015
#        85433
#        104017
#        122873
#        141905
#        159447
#        180342
#        203438
#        223204
#        241884
#        262140
#        282564
#        300697
#        312644
#
# Disc length: 4436 seconds
#
# Revision: 0
# Processed by: cddbd v1.5.2PL0 Copyright (c) Steve Scherf et al.
# Submitted via: ExactAudioCopy v1.0b1
#
DISCID=f3115211
DTITLE=龔玥 - 民歌紅
DYEAR=2011
DGENRE=民歌
TTITLE0=母親
TTITLE1=父親
TTITLE2=常回家看看
TTITLE3=十送紅軍
TTITLE4=莫愁啊莫愁
TTITLE5=美麗的草原我的家
TTITLE6=小白楊
TTITLE7=牧羊曲
TTITLE8=月亮之上
TTITLE9=天路
TTITLE10=遇上你是我的縁
TTITLE11=月亮走我也走
TTITLE12=月光下的鳳尾竹
TTITLE13=爲了誰
TTITLE14=月兒彎彎照九州
TTITLE15=十五的月亮
TTITLE16=難忘今宵
EXTD=
EXTT0=
EXTT1=
EXTT2=
EXTT3=
EXTT4=
EXTT5=
EXTT6=
EXTT7=
EXTT8=
EXTT9=
EXTT10=
EXTT11=
EXTT12=
EXTT13=
EXTT14=
EXTT15=
EXTT16=
PLAYORDER=
